<?xml version="1.0" encoding="utf-8"?>
<svg contentScriptType="text/ecmascript" xmlns:xlink="http://www.w3.org/1999/xlink" zoomAndPan="magnify" contentStyleType="text/css" viewBox="385.00299999999993 180.77605427189962 630.0 331.35269926865556" xmlns:cacoo="http://cacoo.com/" preserveAspectRatio="xMidYMin meet" xmlns="http://www.w3.org/2000/svg" version="1.1"><defs><filter xlink:actuate="onLoad" xlink:type="simple" id="id1" xlink:show="other" filterUnits="userSpaceOnUse" xmlns:xlink="http://www.w3.org/1999/xlink"><feGaussianBlur stdDeviation="3.0" result="blur" in="SourceAlpha"/><feOffset dx="4.0" dy="4.0" result="offsetBlur" in="blur"/><feComponentTransfer result="componentOffsetBlur" in="offsetBlur"><feFuncR type="linear" intercept="0.0" slope="0"/><feFuncG type="linear" intercept="0.0" slope="0"/><feFuncB type="linear" intercept="0.0" slope="0"/><feFuncA type="linear" intercept="0" slope="0.4"/></feComponentTransfer><feMerge><feMergeNode in="componentOffsetBlur"/><feMergeNode in="SourceGraphic"/></feMerge></filter><filter xlink:actuate="onLoad" xlink:type="simple" id="id2" xlink:show="other" filterUnits="userSpaceOnUse" xmlns:xlink="http://www.w3.org/1999/xlink"><feGaussianBlur stdDeviation="3.0" result="blur" in="SourceAlpha"/><feOffset dx="4.0" dy="4.0" result="offsetBlur" in="blur"/><feComponentTransfer result="componentOffsetBlur" in="offsetBlur"><feFuncR type="linear" intercept="0.0" slope="0"/><feFuncG type="linear" intercept="0.0" slope="0"/><feFuncB type="linear" intercept="0.0" slope="0"/><feFuncA type="linear" intercept="0" slope="0.4"/></feComponentTransfer><feMerge><feMergeNode in="componentOffsetBlur"/><feMergeNode in="SourceGraphic"/></feMerge></filter><filter xlink:actuate="onLoad" xlink:type="simple" id="id3" xlink:show="other" filterUnits="userSpaceOnUse" xmlns:xlink="http://www.w3.org/1999/xlink"><feGaussianBlur stdDeviation="3.0" result="blur" in="SourceAlpha"/><feOffset dx="4.0" dy="4.0" result="offsetBlur" in="blur"/><feComponentTransfer result="componentOffsetBlur" in="offsetBlur"><feFuncR type="linear" intercept="0.0" slope="0"/><feFuncG type="linear" intercept="0.0" slope="0"/><feFuncB type="linear" intercept="0.0" slope="0"/><feFuncA type="linear" intercept="0" slope="0.4"/></feComponentTransfer><feMerge><feMergeNode in="componentOffsetBlur"/><feMergeNode in="SourceGraphic"/></feMerge></filter><filter xlink:actuate="onLoad" xlink:type="simple" id="id4" xlink:show="other" filterUnits="userSpaceOnUse" xmlns:xlink="http://www.w3.org/1999/xlink"><feGaussianBlur stdDeviation="3.0" result="blur" in="SourceAlpha"/><feOffset dx="4.0" dy="4.0" result="offsetBlur" in="blur"/><feComponentTransfer result="componentOffsetBlur" in="offsetBlur"><feFuncR type="linear" intercept="0.0" slope="0"/><feFuncG type="linear" intercept="0.0" slope="0"/><feFuncB type="linear" intercept="0.0" slope="0"/><feFuncA type="linear" intercept="0" slope="0.4"/></feComponentTransfer><feMerge><feMergeNode in="componentOffsetBlur"/><feMergeNode in="SourceGraphic"/></feMerge></filter><filter xlink:actuate="onLoad" xlink:type="simple" id="id5" xlink:show="other" filterUnits="userSpaceOnUse" xmlns:xlink="http://www.w3.org/1999/xlink"><feGaussianBlur stdDeviation="3.0" result="blur" in="SourceAlpha"/><feOffset dx="4.0" dy="4.0" result="offsetBlur" in="blur"/><feComponentTransfer result="componentOffsetBlur" in="offsetBlur"><feFuncR type="linear" intercept="0.0" slope="0"/><feFuncG type="linear" intercept="0.0" slope="0"/><feFuncB type="linear" intercept="0.0" slope="0"/><feFuncA type="linear" intercept="0" slope="0.4"/></feComponentTransfer><feMerge><feMergeNode in="componentOffsetBlur"/><feMergeNode in="SourceGraphic"/></feMerge></filter><filter xlink:actuate="onLoad" xlink:type="simple" id="id6" xlink:show="other" filterUnits="userSpaceOnUse" xmlns:xlink="http://www.w3.org/1999/xlink"><feGaussianBlur stdDeviation="3.0" result="blur" in="SourceAlpha"/><feOffset dx="4.0" dy="4.0" result="offsetBlur" in="blur"/><feComponentTransfer result="componentOffsetBlur" in="offsetBlur"><feFuncR type="linear" intercept="0.0" slope="0"/><feFuncG type="linear" intercept="0.0" slope="0"/><feFuncB type="linear" intercept="0.0" slope="0"/><feFuncA type="linear" intercept="0" slope="0.4"/></feComponentTransfer><feMerge><feMergeNode in="componentOffsetBlur"/><feMergeNode in="SourceGraphic"/></feMerge></filter><filter xlink:actuate="onLoad" xlink:type="simple" id="id7" xlink:show="other" filterUnits="userSpaceOnUse" xmlns:xlink="http://www.w3.org/1999/xlink"><feGaussianBlur stdDeviation="3.0" result="blur" in="SourceAlpha"/><feOffset dx="4.0" dy="4.0" result="offsetBlur" in="blur"/><feComponentTransfer result="componentOffsetBlur" in="offsetBlur"><feFuncR type="linear" intercept="0.0" slope="0"/><feFuncG type="linear" intercept="0.0" slope="0"/><feFuncB type="linear" intercept="0.0" slope="0"/><feFuncA type="linear" intercept="0" slope="0.4"/></feComponentTransfer><feMerge><feMergeNode in="componentOffsetBlur"/><feMergeNode in="SourceGraphic"/></feMerge></filter><filter xlink:actuate="onLoad" xlink:type="simple" id="id8" xlink:show="other" filterUnits="userSpaceOnUse" xmlns:xlink="http://www.w3.org/1999/xlink"><feGaussianBlur stdDeviation="3.0" result="blur" in="SourceAlpha"/><feOffset dx="4.0" dy="4.0" result="offsetBlur" in="blur"/><feComponentTransfer result="componentOffsetBlur" in="offsetBlur"><feFuncR type="linear" intercept="0.0" slope="0"/><feFuncG type="linear" intercept="0.0" slope="0"/><feFuncB type="linear" intercept="0.0" slope="0"/><feFuncA type="linear" intercept="0" slope="0.4"/></feComponentTransfer><feMerge><feMergeNode in="componentOffsetBlur"/><feMergeNode in="SourceGraphic"/></feMerge></filter><filter xlink:actuate="onLoad" xlink:type="simple" id="id9" xlink:show="other" filterUnits="userSpaceOnUse" xmlns:xlink="http://www.w3.org/1999/xlink"><feGaussianBlur stdDeviation="3.0" result="blur" in="SourceAlpha"/><feOffset dx="4.0" dy="4.0" result="offsetBlur" in="blur"/><feComponentTransfer result="componentOffsetBlur" in="offsetBlur"><feFuncR type="linear" intercept="0.0" slope="0"/><feFuncG type="linear" intercept="0.0" slope="0"/><feFuncB type="linear" intercept="0.0" slope="0"/><feFuncA type="linear" intercept="0" slope="0.4"/></feComponentTransfer><feMerge><feMergeNode in="componentOffsetBlur"/><feMergeNode in="SourceGraphic"/></feMerge></filter><filter xlink:actuate="onLoad" xlink:type="simple" id="id10" xlink:show="other" filterUnits="userSpaceOnUse" xmlns:xlink="http://www.w3.org/1999/xlink"><feGaussianBlur stdDeviation="3.0" result="blur" in="SourceAlpha"/><feOffset dx="4.0" dy="4.0" result="offsetBlur" in="blur"/><feComponentTransfer result="componentOffsetBlur" in="offsetBlur"><feFuncR type="linear" intercept="0.0" slope="0"/><feFuncG type="linear" intercept="0.0" slope="0"/><feFuncB type="linear" intercept="0.0" slope="0"/><feFuncA type="linear" intercept="0" slope="0.4"/></feComponentTransfer><feMerge><feMergeNode in="componentOffsetBlur"/><feMergeNode in="SourceGraphic"/></feMerge></filter><filter xlink:actuate="onLoad" xlink:type="simple" id="id12" xlink:show="other" filterUnits="userSpaceOnUse" xmlns:xlink="http://www.w3.org/1999/xlink"><feGaussianBlur stdDeviation="3.0" result="blur" in="SourceAlpha"/><feOffset dx="4.0" dy="4.0" result="offsetBlur" in="blur"/><feComponentTransfer result="componentOffsetBlur" in="offsetBlur"><feFuncR type="linear" intercept="0.0" slope="0"/><feFuncG type="linear" intercept="0.0" slope="0"/><feFuncB type="linear" intercept="0.0" slope="0"/><feFuncA type="linear" intercept="0" slope="0.4"/></feComponentTransfer><feMerge><feMergeNode in="componentOffsetBlur"/><feMergeNode in="SourceGraphic"/></feMerge></filter><filter xlink:actuate="onLoad" xlink:type="simple" id="id13" xlink:show="other" filterUnits="userSpaceOnUse" xmlns:xlink="http://www.w3.org/1999/xlink"><feGaussianBlur stdDeviation="3.0" result="blur" in="SourceAlpha"/><feOffset dx="4.0" dy="4.0" result="offsetBlur" in="blur"/><feComponentTransfer result="componentOffsetBlur" in="offsetBlur"><feFuncR type="linear" intercept="0.0" slope="0"/><feFuncG type="linear" intercept="0.0" slope="0"/><feFuncB type="linear" intercept="0.0" slope="0"/><feFuncA type="linear" intercept="0" slope="0.4"/></feComponentTransfer><feMerge><feMergeNode in="componentOffsetBlur"/><feMergeNode in="SourceGraphic"/></feMerge></filter><filter xlink:actuate="onLoad" xlink:type="simple" id="id14" xlink:show="other" filterUnits="userSpaceOnUse" xmlns:xlink="http://www.w3.org/1999/xlink"><feGaussianBlur stdDeviation="3.0" result="blur" in="SourceAlpha"/><feOffset dx="4.0" dy="4.0" result="offsetBlur" in="blur"/><feComponentTransfer result="componentOffsetBlur" in="offsetBlur"><feFuncR type="linear" intercept="0.0" slope="0"/><feFuncG type="linear" intercept="0.0" slope="0"/><feFuncB type="linear" intercept="0.0" slope="0"/><feFuncA type="linear" intercept="0" slope="0.4"/></feComponentTransfer><feMerge><feMergeNode in="componentOffsetBlur"/><feMergeNode in="SourceGraphic"/></feMerge></filter><filter xlink:actuate="onLoad" xlink:type="simple" id="id15" xlink:show="other" filterUnits="userSpaceOnUse" xmlns:xlink="http://www.w3.org/1999/xlink"><feGaussianBlur stdDeviation="3.0" result="blur" in="SourceAlpha"/><feOffset dx="4.0" dy="4.0" result="offsetBlur" in="blur"/><feComponentTransfer result="componentOffsetBlur" in="offsetBlur"><feFuncR type="linear" intercept="0.0" slope="0"/><feFuncG type="linear" intercept="0.0" slope="0"/><feFuncB type="linear" intercept="0.0" slope="0"/><feFuncA type="linear" intercept="0" slope="0.4"/></feComponentTransfer><feMerge><feMergeNode in="componentOffsetBlur"/><feMergeNode in="SourceGraphic"/></feMerge></filter><filter xlink:actuate="onLoad" xlink:type="simple" id="id16" xlink:show="other" filterUnits="userSpaceOnUse" xmlns:xlink="http://www.w3.org/1999/xlink"><feGaussianBlur stdDeviation="3.0" result="blur" in="SourceAlpha"/><feOffset dx="4.0" dy="4.0" result="offsetBlur" in="blur"/><feComponentTransfer result="componentOffsetBlur" in="offsetBlur"><feFuncR type="linear" intercept="0.0" slope="0"/><feFuncG type="linear" intercept="0.0" slope="0"/><feFuncB type="linear" intercept="0.0" slope="0"/><feFuncA type="linear" intercept="0" slope="0.4"/></feComponentTransfer><feMerge><feMergeNode in="componentOffsetBlur"/><feMergeNode in="SourceGraphic"/></feMerge></filter><filter xlink:actuate="onLoad" xlink:type="simple" id="id17" xlink:show="other" filterUnits="userSpaceOnUse" xmlns:xlink="http://www.w3.org/1999/xlink"><feGaussianBlur stdDeviation="3.0" result="blur" in="SourceAlpha"/><feOffset dx="4.0" dy="4.0" result="offsetBlur" in="blur"/><feComponentTransfer result="componentOffsetBlur" in="offsetBlur"><feFuncR type="linear" intercept="0.0" slope="0"/><feFuncG type="linear" intercept="0.0" slope="0"/><feFuncB type="linear" intercept="0.0" slope="0"/><feFuncA type="linear" intercept="0" slope="0.4"/></feComponentTransfer><feMerge><feMergeNode in="componentOffsetBlur"/><feMergeNode in="SourceGraphic"/></feMerge></filter><filter xlink:actuate="onLoad" xlink:type="simple" id="id18" xlink:show="other" filterUnits="userSpaceOnUse" xmlns:xlink="http://www.w3.org/1999/xlink"><feGaussianBlur stdDeviation="3.0" result="blur" in="SourceAlpha"/><feOffset dx="4.0" dy="4.0" result="offsetBlur" in="blur"/><feComponentTransfer result="componentOffsetBlur" in="offsetBlur"><feFuncR type="linear" intercept="0.0" slope="0"/><feFuncG type="linear" intercept="0.0" slope="0"/><feFuncB type="linear" intercept="0.0" slope="0"/><feFuncA type="linear" intercept="0" slope="0.4"/></feComponentTransfer><feMerge><feMergeNode in="componentOffsetBlur"/><feMergeNode in="SourceGraphic"/></feMerge></filter><filter xlink:actuate="onLoad" xlink:type="simple" id="id19" xlink:show="other" filterUnits="userSpaceOnUse" xmlns:xlink="http://www.w3.org/1999/xlink"><feGaussianBlur stdDeviation="3.0" result="blur" in="SourceAlpha"/><feOffset dx="4.0" dy="4.0" result="offsetBlur" in="blur"/><feComponentTransfer result="componentOffsetBlur" in="offsetBlur"><feFuncR type="linear" intercept="0.0" slope="0"/><feFuncG type="linear" intercept="0.0" slope="0"/><feFuncB type="linear" intercept="0.0" slope="0"/><feFuncA type="linear" intercept="0" slope="0.4"/></feComponentTransfer><feMerge><feMergeNode in="componentOffsetBlur"/><feMergeNode in="SourceGraphic"/></feMerge></filter><filter xlink:actuate="onLoad" xlink:type="simple" id="id20" xlink:show="other" filterUnits="userSpaceOnUse" xmlns:xlink="http://www.w3.org/1999/xlink"><feGaussianBlur stdDeviation="3.0" result="blur" in="SourceAlpha"/><feOffset dx="4.0" dy="4.0" result="offsetBlur" in="blur"/><feComponentTransfer result="componentOffsetBlur" in="offsetBlur"><feFuncR type="linear" intercept="0.0" slope="0"/><feFuncG type="linear" intercept="0.0" slope="0"/><feFuncB type="linear" intercept="0.0" slope="0"/><feFuncA type="linear" intercept="0" slope="0.4"/></feComponentTransfer><feMerge><feMergeNode in="componentOffsetBlur"/><feMergeNode in="SourceGraphic"/></feMerge></filter><filter xlink:actuate="onLoad" xlink:type="simple" id="id21" xlink:show="other" filterUnits="userSpaceOnUse" xmlns:xlink="http://www.w3.org/1999/xlink"><feGaussianBlur stdDeviation="3.0" result="blur" in="SourceAlpha"/><feOffset dx="4.0" dy="4.0" result="offsetBlur" in="blur"/><feComponentTransfer result="componentOffsetBlur" in="offsetBlur"><feFuncR type="linear" intercept="0.0" slope="0"/><feFuncG type="linear" intercept="0.0" slope="0"/><feFuncB type="linear" intercept="0.0" slope="0"/><feFuncA type="linear" intercept="0" slope="0.4"/></feComponentTransfer><feMerge><feMergeNode in="componentOffsetBlur"/><feMergeNode in="SourceGraphic"/></feMerge></filter><marker refX="0.0" refY="7.0" markerUnits="userSpaceOnUse" orient="auto" id="id25" markerHeight="14.0" viewBox="0 0 14.0 14.0" preserveAspectRatio="xMidYMid meet" markerWidth="14.0" overflow="visible"><path fill="white" d="M14.0 0 L0 7.0 L14.0 14.0z" stroke-width="2.0" stroke-linejoin="round" stroke-linecap="round" stroke="#666666"/></marker><marker refX="14.0" refY="7.0" markerUnits="userSpaceOnUse" orient="auto" id="id26" markerHeight="14.0" viewBox="0 0 14.0 14.0" preserveAspectRatio="xMidYMid meet" markerWidth="14.0" overflow="visible"><path fill="white" d="M0 0 L14.0 7.0 L0 14.0z" stroke-width="2.0" stroke-linejoin="round" stroke-linecap="round" stroke="#666666"/></marker><radialGradient xmlns:xlink="http://www.w3.org/1999/xlink" xlink:type="simple" r="75%" xlink:actuate="onLoad" cx="50%" id="id27" cy="50%" xlink:show="other"><stop stop-opacity="1.0" stop-color="#fff479" offset="0%"/><stop stop-opacity="1.0" stop-color="#ffb800" offset="100%"/></radialGradient><linearGradient x1="0%" xmlns:xlink="http://www.w3.org/1999/xlink" y1="0%" x2="0%" y2="100%" xlink:type="simple" xlink:actuate="onLoad" id="id28" xlink:show="other"><stop stop-opacity="1.0" stop-color="#2d2d2d" offset="0%"/><stop stop-opacity="1.0" stop-color="#6d6d6d" offset="100%"/></linearGradient><linearGradient x1="0%" xmlns:xlink="http://www.w3.org/1999/xlink" y1="0%" x2="0%" y2="100%" xlink:type="simple" xlink:actuate="onLoad" id="id29" xlink:show="other"><stop stop-opacity="1.0" stop-color="#2d2d2d" offset="0%"/><stop stop-opacity="1.0" stop-color="#6d6d6d" offset="100%"/></linearGradient><linearGradient xlink:actuate="onLoad" xlink:type="simple" id="id32" xlink:show="other" xmlns:xlink="http://www.w3.org/1999/xlink"><stop stop-opacity="1.0" stop-color="#b8b8b8" offset="0%"/><stop stop-opacity="1.0" stop-color="#b4b4b4" offset="100%"/></linearGradient><linearGradient x1="0%" xmlns:xlink="http://www.w3.org/1999/xlink" y1="0%" x2="0%" y2="100%" xlink:type="simple" xlink:actuate="onLoad" id="id33" xlink:show="other"><stop stop-opacity="1.0" stop-color="#b8b8b8" offset="0%"/><stop stop-opacity="1.0" stop-color="#e6e7ed" offset="100%"/></linearGradient><linearGradient x1="0%" xmlns:xlink="http://www.w3.org/1999/xlink" y1="0%" x2="0%" y2="100%" xlink:type="simple" xlink:actuate="onLoad" id="id34" xlink:show="other"><stop stop-opacity="1.0" stop-color="#b8b8b8" offset="0%"/><stop stop-opacity="1.0" stop-color="#e6e7ed" offset="100%"/></linearGradient><linearGradient x1="0%" xmlns:xlink="http://www.w3.org/1999/xlink" y1="0%" x2="0%" y2="100%" xlink:type="simple" xlink:actuate="onLoad" id="id35" xlink:show="other"><stop stop-opacity="1.0" stop-color="#79b8ff" offset="0%"/><stop stop-opacity="1.0" stop-color="#c7e1ff" offset="100%"/></linearGradient><linearGradient x1="0%" xmlns:xlink="http://www.w3.org/1999/xlink" y1="0%" x2="0%" y2="100%" xlink:type="simple" xlink:actuate="onLoad" id="id36" xlink:show="other"><stop stop-opacity="1.0" stop-color="#e6e7ed" offset="0%"/><stop stop-opacity="1.0" stop-color="#b8b8b8" offset="100%"/></linearGradient><linearGradient xlink:actuate="onLoad" xlink:type="simple" id="id37" xlink:show="other" xmlns:xlink="http://www.w3.org/1999/xlink"><stop stop-opacity="1.0" stop-color="#e6e7ed" offset="0%"/><stop stop-opacity="1.0" stop-color="#b8b8b8" offset="100%"/></linearGradient><linearGradient x1="0%" xmlns:xlink="http://www.w3.org/1999/xlink" y1="0%" x2="0%" y2="100%" xlink:type="simple" xlink:actuate="onLoad" id="id38" xlink:show="other"><stop stop-opacity="1.0" stop-color="#79b8ff" offset="0%"/><stop stop-opacity="1.0" stop-color="#c7e1ff" offset="100%"/></linearGradient><linearGradient x1="0%" xmlns:xlink="http://www.w3.org/1999/xlink" y1="0%" x2="0%" y2="100%" xlink:type="simple" xlink:actuate="onLoad" id="id39" xlink:show="other"><stop stop-opacity="1.0" stop-color="#c7e1ff" offset="0%"/><stop stop-opacity="1.0" stop-color="#79b8ff" offset="100%"/></linearGradient><linearGradient x1="0%" xmlns:xlink="http://www.w3.org/1999/xlink" y1="0%" x2="0%" y2="100%" xlink:type="simple" xlink:actuate="onLoad" id="id40" xlink:show="other"><stop stop-opacity="1.0" stop-color="#e6e7ed" offset="0%"/><stop stop-opacity="1.0" stop-color="#b8b8b8" offset="100%"/></linearGradient><linearGradient x1="0%" xmlns:xlink="http://www.w3.org/1999/xlink" y1="0%" x2="0%" y2="100%" xlink:type="simple" xlink:actuate="onLoad" id="id41" xlink:show="other"><stop stop-opacity="1.0" stop-color="#e6e7ed" offset="0%"/><stop stop-opacity="1.0" stop-color="#b8b8b8" offset="100%"/></linearGradient><linearGradient x1="0%" xmlns:xlink="http://www.w3.org/1999/xlink" y1="0%" x2="0%" y2="100%" xlink:type="simple" xlink:actuate="onLoad" id="id42" xlink:show="other"><stop stop-opacity="1.0" stop-color="#e6e7ed" offset="0%"/><stop stop-opacity="1.0" stop-color="#b8b8b8" offset="100%"/></linearGradient><linearGradient x1="0%" xmlns:xlink="http://www.w3.org/1999/xlink" y1="0%" x2="0%" y2="100%" xlink:type="simple" xlink:actuate="onLoad" id="id43" xlink:show="other"><stop stop-opacity="1.0" stop-color="#e6e7ed" offset="0%"/><stop stop-opacity="1.0" stop-color="#b8b8b8" offset="100%"/></linearGradient><linearGradient x1="0%" xmlns:xlink="http://www.w3.org/1999/xlink" y1="0%" x2="0%" y2="100%" xlink:type="simple" xlink:actuate="onLoad" id="id44" xlink:show="other"><stop stop-opacity="1.0" stop-color="#4e515c" offset="0%"/><stop stop-opacity="1.0" stop-color="#050506" offset="100%"/></linearGradient><linearGradient x1="0%" xmlns:xlink="http://www.w3.org/1999/xlink" y1="0%" x2="0%" y2="100%" xlink:type="simple" xlink:actuate="onLoad" id="id45" xlink:show="other"><stop stop-opacity="1.0" stop-color="#050506" offset="0%"/><stop stop-opacity="1.0" stop-color="#4e515c" offset="100%"/></linearGradient><linearGradient x1="0%" xmlns:xlink="http://www.w3.org/1999/xlink" y1="0%" x2="0%" y2="100%" xlink:type="simple" xlink:actuate="onLoad" id="id46" xlink:show="other"><stop stop-opacity="1.0" stop-color="#000000" offset="0%"/><stop stop-opacity="1.0" stop-color="#4e515c" offset="100%"/></linearGradient><linearGradient x1="0%" xmlns:xlink="http://www.w3.org/1999/xlink" y1="0%" x2="0%" y2="100%" xlink:type="simple" xlink:actuate="onLoad" id="id47" xlink:show="other"><stop stop-opacity="1.0" stop-color="#c7e1ff" offset="0%"/><stop stop-opacity="1.0" stop-color="#79b8ff" offset="100%"/></linearGradient><linearGradient x1="0%" xmlns:xlink="http://www.w3.org/1999/xlink" y1="0%" x2="0%" y2="100%" xlink:type="simple" xlink:actuate="onLoad" id="id48" xlink:show="other"><stop stop-opacity="1.0" stop-color="#4e515c" offset="0%"/><stop stop-opacity="1.0" stop-color="#050506" offset="100%"/></linearGradient><linearGradient x1="0%" xmlns:xlink="http://www.w3.org/1999/xlink" y1="0%" x2="0%" y2="100%" xlink:type="simple" xlink:actuate="onLoad" id="id49" xlink:show="other"><stop stop-opacity="1.0" stop-color="#050506" offset="0%"/><stop stop-opacity="1.0" stop-color="#4e515c" offset="100%"/></linearGradient><linearGradient x1="0%" xmlns:xlink="http://www.w3.org/1999/xlink" y1="0%" x2="0%" y2="100%" xlink:type="simple" xlink:actuate="onLoad" id="id50" xlink:show="other"><stop stop-opacity="1.0" stop-color="#000000" offset="0%"/><stop stop-opacity="1.0" stop-color="#4e515c" offset="100%"/></linearGradient><linearGradient x1="0%" xmlns:xlink="http://www.w3.org/1999/xlink" y1="0%" x2="0%" y2="100%" xlink:type="simple" xlink:actuate="onLoad" id="id51" xlink:show="other"><stop stop-opacity="1.0" stop-color="#c7e1ff" offset="0%"/><stop stop-opacity="1.0" stop-color="#79b8ff" offset="100%"/></linearGradient><linearGradient x1="0%" xmlns:xlink="http://www.w3.org/1999/xlink" y1="0%" x2="0%" y2="100%" xlink:type="simple" xlink:actuate="onLoad" id="id52" xlink:show="other"><stop stop-opacity="1.0" stop-color="#4e515c" offset="0%"/><stop stop-opacity="1.0" stop-color="#050506" offset="100%"/></linearGradient><linearGradient x1="0%" xmlns:xlink="http://www.w3.org/1999/xlink" y1="0%" x2="0%" y2="100%" xlink:type="simple" xlink:actuate="onLoad" id="id53" xlink:show="other"><stop stop-opacity="1.0" stop-color="#050506" offset="0%"/><stop stop-opacity="1.0" stop-color="#4e515c" offset="100%"/></linearGradient><linearGradient x1="0%" xmlns:xlink="http://www.w3.org/1999/xlink" y1="0%" x2="0%" y2="100%" xlink:type="simple" xlink:actuate="onLoad" id="id54" xlink:show="other"><stop stop-opacity="1.0" stop-color="#000000" offset="0%"/><stop stop-opacity="1.0" stop-color="#4e515c" offset="100%"/></linearGradient><linearGradient x1="0%" xmlns:xlink="http://www.w3.org/1999/xlink" y1="0%" x2="0%" y2="100%" xlink:type="simple" xlink:actuate="onLoad" id="id55" xlink:show="other"><stop stop-opacity="1.0" stop-color="#c7e1ff" offset="0%"/><stop stop-opacity="1.0" stop-color="#79b8ff" offset="100%"/></linearGradient><filter xlink:actuate="onLoad" xlink:type="simple" id="id56" xlink:show="other" filterUnits="userSpaceOnUse" xmlns:xlink="http://www.w3.org/1999/xlink"><feGaussianBlur stdDeviation="3.0" result="blur" in="SourceAlpha"/><feOffset dx="4.0" dy="-3.9999999999999996" result="offsetBlur" in="blur"/><feComponentTransfer result="componentOffsetBlur" in="offsetBlur"><feFuncR type="linear" intercept="0.0" slope="0"/><feFuncG type="linear" intercept="0.0" slope="0"/><feFuncB type="linear" intercept="0.0" slope="0"/><feFuncA type="linear" intercept="0" slope="0.4"/></feComponentTransfer><feMerge><feMergeNode in="componentOffsetBlur"/><feMergeNode in="SourceGraphic"/></feMerge></filter><filter xlink:actuate="onLoad" xlink:type="simple" id="id58" xlink:show="other" filterUnits="userSpaceOnUse" xmlns:xlink="http://www.w3.org/1999/xlink"><feGaussianBlur stdDeviation="3.0" result="blur" in="SourceAlpha"/><feOffset dx="4.0" dy="-3.9999999999999996" result="offsetBlur" in="blur"/><feComponentTransfer result="componentOffsetBlur" in="offsetBlur"><feFuncR type="linear" intercept="0.0" slope="0"/><feFuncG type="linear" intercept="0.0" slope="0"/><feFuncB type="linear" intercept="0.0" slope="0"/><feFuncA type="linear" intercept="0" slope="0.4"/></feComponentTransfer><feMerge><feMergeNode in="componentOffsetBlur"/><feMergeNode in="SourceGraphic"/></feMerge></filter></defs><g><g transform="translate(505.25299999999993 380.12875354055535)"><path fill="#d4e1f5" fill-opacity="1.0" d="M361.9999999999999 58.49999999999994 Q361.9999999999999 82.73033261999996 308.98872 99.86476499999996 Q255.9749060000001 116.99999999999989 180.99999999999994 116.99999999999989 Q106.02798999999996 116.99999999999989 53.01400441200001 99.86564015999996 Q0.0 82.73128499999997 0.0 58.49999999999994 Q0.0 34.26871499999995 53.01399717199998 17.134360542000003 Q106.02798999999996 0.0 180.99999999999994 0.0 Q255.97618747999988 0.0 308.98872 17.134358201999984 Q361.9999999999999 34.26831251999994 361.9999999999999 58.49999999999994 L361.9999999999999 58.49999999999994z" stroke-width="2.0" stroke-linejoin="round" stroke="#5389d6"/><g transform="translate(50.11527950286866 18.628741035461417)"><clipPath id="id0"><path d="M0 0 L261.7983988952636 0 L261.7983988952636 79.20431900024417 L0 79.20431900024417z"/></clipPath><text font-size="12" clip-path="url(#id0)" text-decoration="none" fill="#000000" font-family="Arial,Arial" font-style="normal" font-weight="normal"/></g></g><g transform="translate(717.5029999999999 405.72425354055537)"><g transform="translate(6.0 0.0)"><path fill="#949ba8" fill-opacity="1.0" d="M88.54699498000002 12.654 L56.851995980000005 36.234 L0.09399998 23.14 L33.020999980000006 0.0 L88.54599998 12.654 L88.54699498000002 12.654z" filter="url(#id1)" stroke="none"/><path fill="#828999" fill-opacity="1.0" d="M-0.15 23.494 L56.852 36.703 L56.852 48.584 L-0.15 35.175999 L-0.15 23.494 L-0.15 23.494z" filter="url(#id2)" stroke="none"/><path fill="#757a8a" fill-opacity="1.0" d="M88.932 12.6540004044 L56.223 35.754002 L56.8520016 48.318 L88.99799999999999 24.344 L88.932 12.653 L88.932 12.6540004044z" filter="url(#id3)" stroke="none"/><path fill="#a8acb2" fill-opacity="1.0" d="M58.061 36.835 L88.81299999999999 13.2339994 L88.532005 12.482999 L56.812999999999995 35.126999999999995 Q56.38 35.448999 55.714 35.322998999999996 Q55.56655 35.295503 46.8277 33.386903000000004 Q43.09156999999999 32.570916 37.897217 31.435598 Q33.358913 30.443669 27.696125 29.205499 Q22.93373 28.164201 17.515142 26.979153 Q13.231841999999999 26.042392999999997 8.644983999999997 25.039093 Q5.446259 24.339424 2.3763654 23.667866 Q0.8638282 23.336987 0.0 23.148001 L0.0 23.771 Q0.8697343 23.973141 2.3924356 24.327061 Q5.4395065 25.035288 8.702672 25.793796999999998 Q13.274599 26.856522 17.630104 27.869042 Q23.061964 29.131778999999998 27.874124999999996 30.250626999999998 Q33.54539 31.569215 38.134131999999994 32.636384 Q43.37783 33.855867 47.109516 34.724141 Q55.886784 36.766408999999996 56.004 36.797002 Q56.344 36.885003 56.425003 37.328 L56.425003 48.424999 L56.852 48.319999 Q57.686 48.160001 57.686 46.856999 Q57.686 37.446 57.686 37.446 Q57.67099999999999 37.024999 58.061 36.836999 L58.061 36.835z" filter="url(#id4)" stroke="none"/><path fill="none" d="M33.404 0.0 L0.0 23.148 L0.0 34.954002 L56.995999999999995 48.618004 L88.998 24.345003 L88.998 12.578 L33.404 0.0 L33.404 0.0z" filter="url(#id5)" stroke="none"/><path fill="none" d="M60.275 33.655 L60.275 33.655z" filter="url(#id6)" stroke="none"/><path fill="#9ccc29" fill-opacity="1.0" d="M43.961 36.44 L43.961 39.3779997 L53.78899899999999 41.6909995 L53.78899899999999 38.717999899999995 L43.961 36.4409994507 L43.961 36.44z" filter="url(#id7)" stroke="none"/><path fill="#6d7384" fill-opacity="1.0" d="M1.938 32.4339985 L54.214999999999996 44.730999 L54.214999999999996 42.897 L1.938 30.782 L1.938 32.4339985 L1.938 32.4339985z" filter="url(#id8)" stroke="none"/><path fill="#6d7384" fill-opacity="1.0" d="M42.086000000000006 37.091999 L1.938 27.788 L1.938 29.4400004 L42.086000000000006 38.885002 L42.086000000000006 37.092003 L42.086000000000006 37.091999z" filter="url(#id9)" stroke="none"/></g><g transform="translate(0.0 48.61800000000005)"><path fill="none" d="M110.99800000000005 25.19099999999997 L0.0 25.19099999999997 L0.0 0.0 L110.99800000000005 0.0 L110.99800000000005 25.19099999999997z" filter="url(#id10)" stroke="none"/><g transform="translate(1.0 1.0)"><clipPath id="id11"><path d="M0 0 L108.99800000000005 0 L108.99800000000005 23.190999999999974 L0 23.190999999999974z"/></clipPath><text font-size="12" clip-path="url(#id11)" text-decoration="none" fill="#000000" font-family="Arial,Arial" font-style="normal" font-weight="normal"><tspan x="34.0" xml:space="preserve" y="13.0" textLength="40.0">Web UI</tspan></text></g></g></g><g transform="translate(557.5029999999999 405.72425354055537)"><g transform="translate(0.0 0.0)"><path fill="#949ba8" fill-opacity="1.0" d="M88.54699498000001 12.654 L56.85199598 36.234 L0.09399998 23.14 L33.02099998 0.0 L88.54599998 12.654 L88.54699498000001 12.654z" filter="url(#id12)" stroke="none"/><path fill="#828999" fill-opacity="1.0" d="M-0.15 23.494 L56.852000000000004 36.703 L56.852000000000004 48.584 L-0.15 35.175999 L-0.15 23.494 L-0.15 23.494z" filter="url(#id13)" stroke="none"/><path fill="#757a8a" fill-opacity="1.0" d="M88.932 12.6540004044 L56.223 35.754002 L56.8520016 48.318 L88.99799999999999 24.344 L88.932 12.653 L88.932 12.6540004044z" filter="url(#id14)" stroke="none"/><path fill="#a8acb2" fill-opacity="1.0" d="M58.061 36.835 L88.813 13.2339994 L88.532005 12.482999 L56.813 35.126999999999995 Q56.38 35.448999 55.714 35.322998999999996 Q55.56655 35.295503 46.8277 33.386903000000004 Q43.09157 32.570916 37.897217 31.435598 Q33.358913 30.443669 27.696125 29.205499 Q22.93373 28.164201 17.515142 26.979153 Q13.231842 26.042392999999997 8.644984 25.039093 Q5.446259 24.339424 2.3763654 23.667866 Q0.8638282 23.336987 0.0 23.148001 L0.0 23.771 Q0.8697343 23.973141 2.3924356 24.327061 Q5.4395065 25.035288 8.702672 25.793796999999998 Q13.274599 26.856522 17.630104 27.869042 Q23.061964 29.131778999999998 27.874125 30.250626999999998 Q33.54539 31.569215 38.134132 32.636384 Q43.37783 33.855867 47.109516 34.724141 Q55.886784 36.766408999999996 56.004 36.797002 Q56.344 36.885003 56.425003 37.328 L56.425003 48.424999 L56.852 48.319999 Q57.686 48.160001 57.686 46.856999 Q57.686 37.446 57.686 37.446 Q57.671 37.024999 58.061 36.836999 L58.061 36.835z" filter="url(#id15)" stroke="none"/><path fill="none" d="M33.404 0.0 L0.0 23.148 L0.0 34.954002 L56.996 48.618004 L88.998 24.345003 L88.998 12.578 L33.404 0.0 L33.404 0.0z" stroke-width="1.0" filter="url(#id16)" stroke-linejoin="round" stroke="#757575"/><path fill="none" d="M60.275 33.655 L60.275 33.655z" stroke-width="1.0" filter="url(#id17)" stroke-linejoin="round" stroke="#aaaaaa"/><path fill-opacity="1.0" fill="#9ccc29" stroke-linejoin="round" filter="url(#id18)" d="M43.961 36.44 L43.961 39.3779997 L53.788999 41.6909995 L53.788999 38.717999899999995 L43.961 36.4409994507 L43.961 36.44z" stroke="#6d7384" stroke-width="1.0"/><path fill="#6d7384" fill-opacity="1.0" d="M1.938 32.4339985 L54.215 44.730999 L54.215 42.897 L1.938 30.782 L1.938 32.4339985 L1.938 32.4339985z" filter="url(#id19)" stroke="none"/><path fill="#6d7384" fill-opacity="1.0" d="M42.086000000000006 37.091999 L1.938 27.788 L1.938 29.4400004 L42.086000000000006 38.885002 L42.086000000000006 37.092003 L42.086000000000006 37.091999z" filter="url(#id20)" stroke="none"/></g><g transform="translate(0.0 48.61800000000005)"><path fill="none" d="M88.99800000000005 25.19099999999997 L0.0 25.19099999999997 L0.0 0.0 L88.99800000000005 0.0 L88.99800000000005 25.19099999999997z" filter="url(#id21)" stroke="none"/><g transform="translate(1.0 1.0)"><clipPath id="id22"><path d="M0 0 L86.99800000000005 0 L86.99800000000005 23.190999999999974 L0 23.190999999999974z"/></clipPath><text font-size="12" clip-path="url(#id22)" text-decoration="none" fill="#000000" font-family="Arial,Arial" font-style="normal" font-weight="normal"><tspan x="12.0" xml:space="preserve" y="13.0" textLength="63.0">API Service</tspan></text></g></g></g><g transform="translate(650.2539999999999 396.72425354055537)"><path fill="#ffffff" fill-opacity="1.0" d="M72.99800000000005 18.000000000000025 L0.0 18.000000000000025 L0.0 0.0 L72.99800000000005 0.0 L72.99800000000005 18.000000000000025z" stroke-width="2.0" stroke-linejoin="round" stroke="#666666"/><g transform="translate(1.0 1.0)"><clipPath id="id23"><path d="M0 0 L70.99800000000005 0 L70.99800000000005 16.0 L0 16.0z"/></clipPath><text font-size="12" clip-path="url(#id23)" text-decoration="none" fill="#000000" font-family="Arial,Arial" font-style="normal" font-weight="normal"><tspan x="5.0" xml:space="preserve" y="12.0" textLength="60.0">WeblogNG</tspan></text></g></g><path fill="none" d="M400.00299999999993 331.5742535405554 L1000.0029999999999 331.5742535405554" stroke-dasharray="6.0 6.0" stroke-width="2.0" stroke-linejoin="round" stroke="#666666"/><g transform="translate(422.20166864846703 291.14055427189953)"><path fill="#d4e1f5" fill-opacity="1.0" d="M117.00000000000009 0.0 Q132.00000000000009 0.0 132.00000000000009 15.0 L132.00000000000009 12.954966620702844 L164.0 14.000000000000036 L132.00000000000009 14.718254911137043 L132.00000000000009 12.000000000000036 Q132.00000000000009 27.000000000000036 117.00000000000009 27.000000000000036 L15.0 27.000000000000036 Q0.0 27.000000000000036 0.0 12.000000000000036 L0.0 15.0 Q0.0 0.0 15.0 0.0 L117.00000000000009 0.0 L117.00000000000009 0.0z" stroke-width="2.0" stroke-linejoin="round" stroke="#5389d6"/><g transform="translate(2.6400000000000015 0.8709677419354858)"><clipPath id="id24"><path d="M0 0 L126.71999999999996 0 L126.71999999999996 25.258064516129068 L0 25.258064516129068z"/></clipPath><text font-size="10" clip-path="url(#id24)" text-decoration="none" fill="#000000" font-family="Arial,Arial" font-style="normal" font-weight="normal"><tspan x="11.0" xml:space="preserve" y="16.129032258064534" textLength="105.0">WeblogNG metrics API</tspan></text></g></g><path fill="none" stroke-linejoin="round" d="M629.9423131283601 442.6287535405554 L730.7014491835884 442.6287535405554" stroke="#666666" marker-start="url(#id25)" stroke-width="2.0" marker-end="url(#id26)"/><g transform="translate(751.6540173503458 218.64514510117843)"><path fill="#ff9900" fill-opacity="1.0" d="M0.0 24.178 Q0.0 14.1852665 7.093 7.0928745 Q14.186482 0.0 24.182 0.0 Q34.174248 0.0 41.267124 7.0928745 Q48.36 14.185751 48.36 24.178 Q48.36 34.17244 41.2675 41.265747 Q34.175064 48.359 24.182001 48.359 Q14.186252 48.359 7.0930004 41.265755 Q0.0 34.172752 0.0 24.178 L0.0 24.178z" stroke="none"/><path fill="url(#id27)" d="M1.041 24.177999 Q1.041 14.569033 7.8088747000000005 7.7748737 Q14.583441 0.973999 24.182 0.973999 Q33.784155999999996 0.973999 40.584624999999996 7.774874 Q47.385 14.575652 47.385 24.177999 Q47.385 33.775982 40.584624999999996 40.550249 Q33.790794 47.317999 24.182003 47.317999 Q14.576830000000001 47.317999 7.808878 40.550250999999996 Q1.0410022649764998 33.782579 1.0410022649764998 24.178001 L1.041 24.177999z" stroke="none"/><path fill="#fff9c2" fill-opacity="1.0" d="M2.149 23.808001299999997 Q2.149 27.5420713 3.3839999 31.1550013 Q3.1899999 29.697016299999998 3.1899999 28.0990023 Q3.1899999 18.5926883 9.949124000000001 11.8736253 Q16.7068 5.1560002 26.264 5.1560002 Q35.718077 5.1560002 42.450003 11.786000300000001 Q35.872820000000004 1.9700003 24.122001 1.9700003 Q15.004434 1.9700003 8.577877 8.3561249 Q2.1500015965 14.7435603 2.1500015965 23.809000299999997 L2.149 23.808001299999997z" stroke="none"/><path fill="#ffffff" fill-opacity="1.0" d="M13.13 32.6290018 Q13.324999700000001 33.21394 13.7881402 34.0649225 Q14.7144221 35.7668916 16.0551242 37.097126 Q17.932108 38.959454 20.3697966 39.812267000000006 Q23.416904000000002 40.878281 27.171001 40.297001 Q30.924060000000004 39.695099 33.452655 37.933766 Q35.475531000000004 36.5247 36.627250000000004 34.4418756 Q37.449904000000004 32.954147500000005 37.754722 31.278297600000002 Q37.907126 30.4403764 37.895 29.8999998 L37.115 28.469 L13.131002311700001 32.628998 L13.13 32.6290018z" stroke="none"/><path fill="#000000" fill-opacity="1.0" d="M38.425999 27.708 L37.765 27.81800061 L13.709 31.536001 L14.4319993 30.7450007 L13.063999299999999 29.249999799999998 L8.969 33.734001 L10.333999799999999 35.229 L11.844 33.576 Q13.063816 36.471809 16.682125 38.72525 Q20.776213 41.275000999999996 25.61 41.275000999999996 Q38.740002 41.275000999999996 38.740002 30.030002399999997 Q38.684002 28.887002799999998 38.427002 27.7080019073486 L26.130000000000003 39.910999 Q14.567917 39.910999 14.188999299999999 32.8569983 L37.348 29.287997999999998 Q37.327 29.3419989 37.311001 29.379997099999997 Q37.311001 30.759054 37.023003 32.091995 L32.905003 33.0439947 L32.5 31.329000299999997 L31.719001999999996 31.3950003 Q31.656002 31.458 31.656002 31.458 L32.075 33.234001 L28.800001 33.992000399999995 L28.340002 32.0460013 Q28.340002 31.979001999999998 28.277001999999996 31.979001999999998 L27.562002 32.109001 Q27.562002 32.109001 27.562002 32.1720007 L28.034002 34.170002 L22.621001999999997 35.4220007 L23.466002 36.139998999999996 L28.267001999999998 35.156997499999996 L28.667001999999997 36.853995999999995 L29.382002 36.790996 Q29.445002000000002 36.724993999999995 29.445002000000002 36.724993999999995 L29.038002 34.9989927 L32.333 34.3239935 L32.762001 36.139992 Q32.762001 36.202991 32.825 36.202991 L33.542 36.071991 Q33.605 36.071991 33.605 36.008990999999995 L33.167 34.152992 L36.643002 33.439991 Q34.360062 39.910991499999994 26.131 39.910991499999994" stroke="none"/><path fill="url(#id28)" d="M13.1300002 25.155001 Q12.1222496 25.317002 10.984874699999999 25.275876 Q8.7101249 25.193627 8.0620002 24.178002 Q7.4507498 23.162377 6.198750499999999 21.554627 Q5.57275005 20.750752 5.0690002 20.150002 L5.0690002 13.063002 Q6.0765004 12.5917525 7.3360004 12.1041274 Q9.8550005 11.12887715 11.114999699999998 11.047002305 Q12.375 11.007627 15.3814992 11.023376931 Q16.3210312 11.028298844 17.3224682 11.03814267 Q17.8231872 11.043064584 18.1359992 11.047002305 L20.1509992 13.063002 L21.188000199999998 19.109002 L18.1359992 23.140002 L13.1299992 25.155001 L13.1300002 25.155001z" stroke="none"/><path fill="url(#id29)" d="M35.425998 25.155001 Q36.432747 25.317002 37.561874 25.275876 Q39.820121 25.193627 40.431999000000005 24.178002 Q41.080124 23.162377 42.347374 21.554627 Q42.980999 20.750752 43.485 20.150002 L43.485 13.063002 Q42.477249 12.5917525 41.217498 12.1041274 Q38.698002 11.12887715 37.437999000000005 11.047002305 Q36.1805 11.007627 33.1414982 11.023376931 Q32.1918103 11.028298844 31.1779362 11.03814267 Q30.6709992 11.043064584 30.3539998 11.047002305 L28.3390004 13.063002 L27.364 19.109002 L30.3530003 23.140002 L35.424999 25.155001 L35.425998 25.155001z" stroke="none"/><path fill="#000000" fill-opacity="1.0" d="M4.421 15.0790007 Q4.3557500000000005 16.0217516 4.379875 17.281376 Q4.4281248 19.800625 4.875 21.384999999999998 Q5.489007 23.570824 6.711624800000001 24.569126 Q8.7016064 26.194001 13.13 26.194001 Q18.842257 26.194001 21.059125 22.822626 Q21.807421 21.684632 22.12339 20.189453 Q22.24899 19.595118 22.359002 18.33 Q22.400252000000002 18.085625 22.448752 16.917376 Q22.473002 16.3332503 22.489 15.7980006 L23.269002 15.08 L23.790002 14.106000000000002 L24.568001 14.106000000000002 L25.089001 15.08 Q25.885502 16.3335 25.910126 16.9177515 Q25.959378 18.086251 26.000003 18.33 Q26.110013000000002 19.595112 26.235612 20.189453 Q26.551581000000002 21.68463 27.299878 22.822624 Q29.516747000000002 26.194001 35.229005 26.194001 Q39.660023 26.194001 41.64938 24.569499999999998 Q42.870976 23.571949 43.485005 21.384999999999998 Q43.931256 19.800625 43.979256 17.281376 Q44.003255 16.0217497 43.938004 15.0790007 Q46.344002 14.912614000000001 46.344002 13.1300004 Q46.344002 10.7250006 45.436 10.7250006 L41.86 10.7250006 Q41.438 10.56250024 40.439126 10.4000008 Q38.441376 10.075001 35.557 10.075001 Q33.254773 10.075001 30.152249 10.392126320000001 Q27.498324 10.663397100000001 25.286 11.049001 L23.074 11.049001 Q20.860724 10.6633799 18.207875 10.392126320000001 Q15.106413 10.075001 12.806999000000001 10.075001 Q9.9207493 10.075001 7.921749 10.4000008 Q6.9222485 10.5625012 6.499998700000001 10.7250006 L2.926 10.7250006 Q2.015 10.7250006 2.015 13.1300004 Q2.015 14.912614000000001 4.421 15.0790007 L6.436999999999999 14.8850005 Q6.436999999999999 13.7088225 7.2819992 13.129000000000001 Q8.1084715 12.606171 10.116249 12.3814995 Q11.568437000000001 12.219000000000001 13.584999 12.219000000000001 Q16.9629685 12.219000000000001 18.657 12.6720002 Q20.206166 13.151066 20.085 14.818000000000001 Q20.085 17.9525588 20.022000000000002 18.459 Q19.770789 21.115212 18.266000000000002 22.619999 Q17.320934 23.563082 14.341749 23.773874499999998 Q12.004413000000001 23.939251 10.271999000000001 23.661 Q6.552102700000001 23.036576 6.436999999999999 19.240000000000002 L6.436999999999999 14.886 L41.926 14.8850005 L41.926 19.239001000000002 Q41.805367000000004 23.037112999999998 38.088997 23.66 Q36.3566 23.93825 34.019124 23.772875 Q31.039723000000002 23.562084 30.093999 22.619 Q28.58878 21.1125605 28.339000000000002 18.458 Q28.276 17.955454 28.276 14.8170006 Q28.154704 13.1501076 29.704 12.6710007 Q31.398030000000002 12.2180006 34.775998 12.2180006 Q36.791592 12.2180006 38.243622 12.380501 Q40.251183 12.6051714 41.079 13.1280005 Q41.927 13.71044 41.927 14.884001000000001" stroke="none"/></g><g transform="translate(820.361 291.14055427189953)"><path fill="#d4e1f5" fill-opacity="1.0" d="M117.00000000000009 0.0 Q132.00000000000009 0.0 132.00000000000009 15.0 L132.00000000000009 12.000000000000036 Q132.00000000000009 27.000000000000036 117.00000000000009 27.000000000000036 L15.0 27.000000000000036 Q2.1962223052978516 27.0 0.32155948877334595 16.070884704589844 L-36.0 16.000000000000036 L0.0 14.163801035975515 L0.0 15.0 Q0.0 0.0 15.0 0.0 L117.00000000000009 0.0 L117.00000000000009 0.0z" stroke-width="2.0" stroke-linejoin="round" stroke="#5389d6"/><g transform="translate(2.6400000000000015 0.8709677419354858)"><clipPath id="id30"><path d="M0 0 L126.71999999999996 0 L126.71999999999996 25.258064516129068 L0 25.258064516129068z"/></clipPath><text font-size="10" clip-path="url(#id30)" text-decoration="none" fill="#000000" font-family="Arial,Arial" font-style="normal" font-weight="normal"><tspan x="11.0" xml:space="preserve" y="16.129032258064534" textLength="104.0">WeblogNG Dashboard</tspan></text></g></g><g transform="translate(739.3345173503459 273.14055427189953)"><path fill="none" d="M72.99800000000005 18.000000000000025 L0.0 18.000000000000025 L0.0 0.0 L72.99800000000005 0.0 L72.99800000000005 18.000000000000025z" stroke-width="2.0" stroke-linejoin="round" stroke="#666666"/><g transform="translate(1.0 1.0)"><clipPath id="id31"><path d="M0 0 L70.99800000000005 0 L70.99800000000005 16.0 L0 16.0z"/></clipPath><text font-size="12" clip-path="url(#id31)" text-decoration="none" fill="#000000" font-family="Arial,Arial" font-style="normal" font-weight="normal"><tspan x="13.0" xml:space="preserve" y="12.0" textLength="44.0">DevOps</tspan></text></g></g><g transform="translate(465.0 203.00070713419814)"><path fill="url(#id32)" d="M49.79744872801938 70.1888496572754 Q52.45585356399209 70.67842657070705 53.97718124941725 69.77323569496228 Q56.79068178220398 68.10014448405414 64.0999466043866 63.28653079616569 Q68.07789854708145 60.66678531832063 70.65934220370093 58.85052054212002 Q73.79659240131859 56.64321230213857 74.56912619694391 55.83202014658507 L75.07276774094738 51.80746009261522 Q74.1723328319635 52.806350500945626 70.75304228075902 54.72790209070301 Q68.04891446420747 56.247551167596534 63.72107545721334 58.36858103434561 Q62.083543741342766 59.17111861897908 60.122412090562186 60.104299915395345 Q58.8756790981108 60.6975461962562 56.96697106873377 61.59443477474942 Q53.74909266988144 63.10650279888322 53.48080296775954 63.27041985667463 Q52.425540968365226 63.91594365883438 51.359173546108934 63.703272723883074 Q51.662976463111015 63.76337431414063 45.255993218936986 62.71766145388479 Q42.02724261291768 62.19068563602342 38.88661396381162 61.66271297987035 Q34.90603312668703 60.993532303932156 31.17501304721233 60.34092582278583 Q26.74997300537278 59.56693284102208 22.773426709026452 58.83325386913026 Q18.224680713976316 57.994015484480194 14.334073040059984 57.22064864602211 Q5.182877283104988 55.40159009098794 -0.04900675738452391 54.00440420896136 L-0.04900675738452391 56.42458402198815 L0.08075917408004978 57.33929735772185 L0.7377559179985907 57.87651261502984 L49.79744509820312 70.18975711134158 L49.79744872801938 70.1888496572754z" stroke="none"/><path fill="#ffffff" fill-opacity="1.0" d="M1.3747930010169394 54.64506913906913 Q2.1594714359008385 54.82705569446265 3.533622685402171 55.145532143714966 Q6.281924912168616 55.78248839979964 9.229290346436883 56.46494131741905 Q13.356152779030632 57.42049861619932 17.290563260721758 58.33031015730369 Q22.209618573830678 59.46780546268495 26.546207252930966 60.46865542732588 Q31.673045953390716 61.65188569167965 35.8249913238279 62.60700741250815 Q40.57201784724777 63.69901676431266 43.955684474175996 64.47237271332195 Q51.918167401545546 66.29224461943565 52.087861311922296 66.29224461943565 Q52.39753001200821 66.29224461943565 53.18066287112658 65.7976839682725 Q53.57222930068577 65.55040364269092 53.90186199022777 65.30312331710935 Q54.2333967034925 65.09866348027593 54.811777979295165 64.74162794657028 Q55.96847065693739 64.02760406677042 57.20278241813083 63.26469563642513 Q58.930990574110965 62.196523288031194 60.566776348358204 61.183654820246886 Q62.61192372640254 59.917323542328084 64.39566081160072 58.80983347788148 Q68.93632502073739 55.99063122970609 71.41567102037033 54.42915841161072 Q74.51490796715545 52.47727916248897 74.19797963454005 52.61328442142917 Q73.86787506888363 52.754499483057835 70.3636912823334 54.750660312719695 Q70.07726701815284 54.91381873891178 68.70847691652914 55.694184770582346 Q67.61682782398888 56.31655370255309 66.88532456396618 56.73282556906418 Q64.65084596955283 58.00436681301318 62.95654755711792 58.958311112190806 Q58.22159743241085 61.62425553027242 55.51895784052785 63.04226321808386 Q52.044746354329675 64.86510522135619 51.59329884585102 64.80855540631367 Q51.14414265888948 64.75229688402642 42.981746693285125 63.10451048348091 Q39.568595976292464 62.41548015729897 34.73316527774477 61.43333082456319 Q30.697462958277853 60.61361576967467 25.433103223903903 59.54135198313252 Q23.275024094776814 59.101783139125644 20.758392622472446 58.588806252161696 Q18.79927914953506 58.189468930452136 16.264355218164518 57.672552603896065 Q15.33870942031386 57.48380215812941 14.131289152917773 57.237570577212125 Q12.586601784920864 56.922559059820735 12.098839779621583 56.82309528826127 Q9.798114316014477 56.3539223887624 8.40970415002576 56.07092104131949 Q0.9231146362238454 54.544926773358966 1.3738854108326435 54.64506913906913 L1.3747930010169394 54.64506913906913z" stroke="none"/><path fill="none" d="M74.95026567074825 51.884593189776496 L0.005444706248033657 53.508029829356126 L0.005444706248033657 56.48538489634911 Q-0.058077069310433785 57.56162632629957 0.7559091917600933 57.77397148524112 Q3.465742208323918 58.48688736362617 11.637034853593162 60.53758291583115 Q15.080782199335408 61.40183581628808 19.521877825967984 62.5105436840915 Q23.308558415500322 63.455888948537954 27.916348816820904 64.60290408229135 Q31.50699573425138 65.4967259197679 35.98052013939317 66.60861214543814 Q37.5571371861629 67.00047894229323 39.626266760268386 67.51459159876642 Q40.15070442910663 67.64489565049224 41.30662304843041 67.93208852826686 Q42.396635093835236 68.2029082123253 42.87446955165045 68.32163587252879 Q49.54902923905037 69.98007714499242 49.79200460254196 70.0454755446343 Q51.852536956824395 70.60008969098949 53.973549309709995 69.62986158232118 Q54.429938813033104 69.42029232536811 62.546607260788285 64.10880033425053 Q66.253578900055 61.68297779034937 69.04042478455565 59.81901813588411 Q72.3459804878288 57.60812699501313 73.69706706807528 56.626949545582235 Q74.92757478182327 55.733923999048756 74.92757478182327 54.694978568236905 L74.94845167006994 51.88368623417483 L74.95026567074825 51.884593189776496z" stroke-width="1.0" stroke-linejoin="round" stroke="#aaaaaa"/><path fill="url(#id33)" d="M0.7286856151472219 54.56430736059591 Q32.204646429409586 62.61962011657408 50.24936236842822 66.23234992870519 Q52.151600250313344 66.61351330484962 53.47717557439716 65.79858960743056 Q53.62832203111514 65.70574072228655 54.56353874700186 65.14027796257011 Q55.78942933446108 64.39906675894733 56.66584847158337 63.86716165059843 Q59.985397116557074 61.85251561862674 62.74773266673006 60.14288304738143 Q66.6530792095894 57.72581289794864 69.38155764855297 55.95852614006228 Q72.76966444822703 53.76397461710705 74.22611007537397 52.64685782619932 Q75.75674007243158 51.55074315219939 74.28328331135994 51.123241541619244 Q73.96678692688005 51.03127197946537 66.94106883203412 49.59639199820135 Q60.95192281263535 48.37321379094595 51.12755104097956 46.38610536006673 Q30.266364472015564 42.166653664937314 23.214490828619972 40.76828392741053 Q22.539345003377715 40.63398180548536 21.79614012317152 40.980629231544725 Q21.482941426768143 41.15748556797139 20.932318263396038 41.46833246104414 Q19.815439225453645 42.09885350661846 18.643956861440717 42.76000330481631 Q16.979716050040086 43.69925274657316 15.38571218336224 44.59848527891934 Q13.384547288997808 45.727409862136284 11.612235957946977 46.72662568349483 Q7.087552468642854 49.27760429220433 4.338226089217312 50.82324357951667 Q0.9032708844315265 52.754332148528036 0.45917175749003003 52.99259510305392 Q-1.4349144645185425 54.00960700610443 0.7286856151472219 54.56430373077965 L0.7286856151472219 54.56430736059591z" stroke-width="1.0" stroke-linejoin="round" stroke="#aaaaaa"/><path fill="#969696" fill-opacity="1.0" d="M66.51820068191591 51.72306777191401 L54.9345495270538 58.175973636561444 L12.057344768192484 48.89816417133159 L54.873748289711216 58.87289654448403 L66.50368141685695 51.992578907209 L66.51820068191591 51.72306777191401z" stroke-width="1.0" stroke-linejoin="round" stroke="#969696"/><path fill="#b7b7b7" fill-opacity="1.0" d="M23.052963097384826 42.63945166193978 L12.14082795150022 48.854603653792466 L54.99262386492749 58.397389706348584 L66.46828435609723 51.63231782802509 L23.052959467568563 42.64035515587642 L23.052963097384826 42.63945166193978z" stroke-width="1.0" stroke-linejoin="round" stroke="#969696"/><path fill="url(#id34)" d="M26.564810787251027 53.728540350730626 L20.36780651554096 57.28031692696306 L32.60301150483264 60.07981181369228 L38.7900342355417 56.46995908467802 L26.563905601820004 53.728540350730626 L26.564810787251027 53.728540350730626z" stroke-width="1.0" stroke-linejoin="round" stroke="#aaaaaa"/><path fill="#dbdbdb" fill-opacity="1.0" d="M22.27346041751283 56.165054518439575 L20.36780651554096 57.280315656527364 L32.60301150483264 60.07981045251118 L34.49959050316102 58.90828707157446 L22.2725551413364 56.16596147404124 L22.27346041751283 56.165054518439575z" stroke-width="1.0" stroke-linejoin="round" stroke="#aaaaaa"/><path fill="url(#id35)" d="M24.356974590493866 37.46696294020811 L26.0648031430556 3.069916561434223 L75.89673573358428 10.353142896641694 L73.15713553758552 46.98252900059492 L24.356974590493866 37.46696294020811 L24.356974590493866 37.46696294020811z" stroke="none"/><path fill="url(#id36)" d="M78.43216239450749 7.713359852964855 L26.089304402842615 0.0 Q24.66245375664701 -0.31981147752540545 24.110147265982132 0.6352179552245689 Q23.809243936957724 0.9185072378426813 23.788001435467788 1.3566440285877104 L21.70267171006199 38.40799591033572 Q21.64353266540698 39.65482872273439 22.891436092112933 39.93433364966029 L74.68074456253308 50.4108908437757 Q74.80966383935389 50.43982955394636 74.93937169375823 50.4426517360922 Q76.90959966409825 50.55552087284439 76.98114334267635 49.05515446889407 L79.62001795223661 9.240607314990774 Q79.67910137903189 7.993385204797711 78.43216239450749 7.713359852964855 L78.43216239450749 7.713359852964855z" stroke="none"/><path fill="url(#id37)" d="M24.5466323995813 0.6579041653163804 L77.49294743600514 8.900309484780436 L77.90946885238444 10.148058825785952 Q77.87112619572589 10.7486799858427 77.80403176443431 11.801387502040695 Q77.66983745712675 13.906853351864397 77.52606769451279 16.167230685326683 Q77.32479256772464 19.331695430389246 77.13308563661036 22.354375922334672 Q76.89344698172013 26.132775993513064 76.6825909549012 29.4716116672095 Q76.4333659552558 33.41802595128813 76.23209808810017 36.627730003912255 Q76.00207753885745 40.29594700237436 75.83910967801927 42.931511219501175 Q75.45570942760169 49.13211763012697 75.45570942760169 49.417226993365624 Q75.45570942760169 50.24573074088516 74.68074728489526 50.40998264922699 L75.73157637117625 50.45263571269992 L76.66081205731274 49.55243946413545 L76.98113971286007 49.05424718179943 L79.62001341496627 9.239700027896136 L79.24069852275466 8.317726696651333 L78.4321642094156 7.713359566209371 L27.20910272051593 0.07531869112324016 Q26.688904677074902 0.01293120229406676 26.1063191665836 -0.018262487673275964 Q24.94114769187396 -0.08064997650244937 24.629210356622583 0.07531869112324016 Q24.12920262168175 0.3248685956225061 23.787093436929165 1.3566438325776322 Q23.87965309831319 0.8239681142357367 24.54572543554031 0.6579041653163804 L24.5466323995813 0.6579041653163804z" stroke="none"/><path fill="url(#id38)" d="M24.356974590493866 37.46696294020811 L26.0648031430556 3.069916561434223 L75.89673573358428 10.353142896641694 L73.15713553758552 46.98252900059492 L24.356974590493866 37.46696294020811 L24.356974590493866 37.46696294020811z" stroke="none"/><path fill="none" d="M24.356974590493866 37.46696294020811 L26.0648031430556 3.069916561434223 L75.89673573358428 10.353142896641694 L73.15713553758552 46.98252900059492 L24.356974590493866 37.46696294020811 L24.356974590493866 37.46696294020811z" stroke-width="1.0" stroke-linejoin="round" stroke="#aaaaaa"/><path fill="url(#id39)" d="M75.20253337295212 27.011277734087415 Q63.18409102899618 16.256133049107024 48.372746452101865 16.256133049107024 Q33.60436619542518 16.256133049107024 23.79253816132628 25.661894445123153 L23.795260758918424 38.028678459103645 L73.3976017905841 48.07600987991315 L75.20252611331959 27.011277734087415 L75.20253337295212 27.011277734087415z" stroke="none"/><path fill="none" d="M24.356974590493866 37.46696294020811 L26.0648031430556 3.069916561434223 L75.89673573358428 10.353142896641694 L73.15713553758552 46.98252900059492 L24.356974590493866 37.46696294020811 L24.356974590493866 37.46696294020811z" stroke-width="1.0" stroke-linejoin="round" stroke="#878da0"/><path fill="#ffffff" fill-opacity="1.0" d="M40.466097599354896 3.2423333784819706 Q41.01663694536919 3.321579490875684 41.98245119745957 3.460756927920513 Q43.91407271424401 3.7391113936558407 45.99042271886332 4.038766301823232 Q48.89745817206809 4.458303768835066 51.67839108587348 4.860469352632709 Q55.154811315268745 5.3632135153101235 58.23473219480104 5.80997484024559 Q66.07460809583417 6.947199361333498 70.7060077295947 7.628823864135882 Q76.49514724298984 8.480839746510288 76.91126665721782 8.568180839199574 Q78.14903218858717 8.827040460156491 78.14903218858717 9.901230680935745 Q78.14903218858717 10.434927375847506 77.63087591679506 16.12806587165435 Q77.4689543504952 17.907178570931244 77.27464574857315 19.988730283748747 Q77.17748917897697 21.0295102237008 77.11272145991109 21.71446744230666 L76.90582465518291 23.71812692789904 Q76.92743295140693 23.138546905274943 76.95984721065109 22.210050794202395 Q77.02466937696094 20.353060386965435 77.07869374733724 18.60847903726911 Q77.15432369157537 16.166068233038082 77.1975457287478 14.29739163233678 Q77.2515619320375 11.961548603822347 77.2515619320375 10.660769462097065 Q77.2515619320375 9.521204072500025 76.28421408257529 9.279624373362232 Q75.8437594726544 9.169199010410276 70.1469361688664 8.200916483259878 Q65.58948405950528 7.426292548683911 57.89420098192414 6.140967803432805 Q54.87120741832589 5.6360423026710915 51.4607010224821 5.068488042822905 Q48.73302205055082 4.614564545924661 45.88172333354525 4.141250570540158 Q43.84467679794976 3.8031015153324073 41.95173242539267 3.489439835864462 Q41.00483958878175 3.332539113092852 40.4651871820882 3.243239901318794 L40.466097599354896 3.2423333784819706z" stroke="none"/><path fill="none" d="M78.43216239450749 7.713359852964855 L26.089304402842615 0.0 Q24.66245375664701 -0.31981147752540545 24.110147265982132 0.6352179552245689 Q23.809243936957724 0.9185072378426813 23.788001435467788 1.3566440285877104 L21.70267171006199 38.40799591033572 Q21.64353266540698 39.65482872273439 22.891436092112933 39.93433364966029 L74.68074456253308 50.4108908437757 Q74.80966383935389 50.43982955394636 74.93937169375823 50.4426517360922 Q76.90959966409825 50.55552087284439 76.98114334267635 49.05515446889407 L79.62001795223661 9.240607314990774 Q79.67910137903189 7.993385204797711 78.43216239450749 7.713359852964855 L78.43216239450749 7.713359852964855z" stroke-width="1.0" stroke-linejoin="round" stroke="#aaaaaa"/><path fill="url(#id40)" d="M60.419200723390674 47.047863461023304 Q60.07346371877229 47.85459008956434 60.49089175436003 48.515217194220064 L69.56180434226539 50.45807535172445 Q69.32586447014894 49.53428566042077 69.4910202027407 48.942628694611436 Q69.65708338939864 48.35096828047665 70.36762446049248 48.042433716482655 L61.29671143700916 46.2892331902047 Q60.76494466095812 46.24113685063134 60.419200723390674 47.047863461023304 L60.419200723390674 47.047863461023304z" stroke="none"/><path fill="#f2f2f2" fill-opacity="1.0" d="M69.85308893042446 48.460769315031065 L60.81756808559797 46.72118005164364 L60.483628419417954 47.256578086811395 L69.34310292131725 49.07783835227365 L69.8540027366691 48.460769315031065 L69.85308893042446 48.460769315031065z" stroke="none"/><path fill="url(#id41)" d="M70.43386171067314 49.566957092147284 L69.92024098504923 50.11233517101684 L69.56179966887696 50.458075623960674 Q69.05906934487405 50.11596643920809 69.39573679982793 49.03700428047639 Q69.69973309529153 48.0678426142768 70.42297135442485 48.06421479196087 L70.43386171067314 49.566957092147284 L70.43386171067314 49.566957092147284z" stroke-width="1.0" stroke-linejoin="round" stroke="#aaaaaa"/><path fill="url(#id42)" d="M23.69362613998814 39.661187362270645 Q23.347885668895223 40.46791399081168 23.765315446794773 41.12944809580656 L32.690127095186476 43.026027094134946 Q32.59847241959358 42.14761300999357 32.764539236067776 41.55595259585878 Q32.930605145087924 40.96429218172399 33.64204641061541 40.655757617729996 L24.570228110955668 38.90255709145204 Q24.03936833524378 38.85446075187868 23.693627873225406 39.661187362270645 L23.69362613998814 39.661187362270645z" stroke="none"/><path fill="#f2f2f2" fill-opacity="1.0" d="M33.17924302195251 41.03234987550683 L24.143722068231536 39.291853611780255 L23.542079931604924 39.76191623369286 L32.67106692998031 41.650329270668614 L33.18014956856463 41.03235332383228 L33.17924302195251 41.03234987550683z" stroke="none"/><path fill="none" d="M60.419200723390674 47.047863461023304 Q60.07346371877229 47.85459008956434 60.49089175436003 48.515217194220064 L69.56180434226539 50.45807535172445 Q69.32586447014894 49.53428566042077 69.4910202027407 48.942628694611436 Q69.65708338939864 48.35096828047665 70.36762446049248 48.042433716482655 L61.29671143700916 46.2892331902047 Q60.76494466095812 46.24113685063134 60.419200723390674 47.047863461023304 L60.419200723390674 47.047863461023304z" stroke-width="1.0" stroke-linejoin="round" stroke="#aaaaaa"/><path fill="none" d="M23.69362613998814 39.661187362270645 Q23.347885668895223 40.46791399081168 23.765315446794773 41.12944809580656 L32.690127095186476 43.026027094134946 Q32.59847241959358 42.14761300999357 32.764539236067776 41.55595259585878 Q32.930605145087924 40.96429218172399 33.64204641061541 40.655757617729996 L24.570228110955668 38.90255709145204 Q24.03936833524378 38.85446075187868 23.693627873225406 39.661187362270645 L23.69362613998814 39.661187362270645z" stroke-width="1.0" stroke-linejoin="round" stroke="#aaaaaa"/><path fill="url(#id43)" d="M33.691953208166396 42.09951785374031 L34.253666821408395 42.31186319417267 L33.9469461673473 42.89354016165291 L32.83712675905821 43.072307342255826 Q32.33348948008885 42.73019815750324 32.67106389000919 41.65123599877154 Q32.97415323050633 40.681167422978206 33.69739493796509 40.67753960066228 L33.69194966909554 42.100428302404914 L33.691953208166396 42.09951785374031z" stroke-width="1.0" stroke-linejoin="round" stroke="#aaaaaa"/></g><g transform="translate(563.0 214.0)"><path fill="#67676d" fill-opacity="1.0" d="M31.236742275061683 45.63112941577046 Q31.236742275061683 49.24299999999995 27.624871690832194 49.24299999999995 L3.612569205232241 49.24299999999995 Q0.0 49.24299999999995 0.0 45.63112941577046 L0.0 3.6118705842294885 Q0.0 0.0 3.612569205232241 0.0 L27.624871690832194 0.0 Q31.236740877819678 0.0 31.236740877819678 3.6118705842294885 L31.236740877819678 45.63112941577046 L31.236742275061683 45.63112941577046z" stroke-width="1.0" stroke-linejoin="round" stroke="#67676d"/><path fill="url(#id44)" d="M30.476642763791347 44.82841206719343 Q30.476642763791347 48.295666706611186 27.010085348134343 48.295666706611186 L4.332847598794081 48.295666706611186 Q0.9476038413582828 48.295666706611186 0.8662901831370758 44.82841206719343 L0.8662901831370758 4.405504322804524 Q0.8662901831370758 0.9382482861447653 4.332847598794081 0.9382482861447653 L27.010083252271336 0.9382482861447653 Q30.476642763791347 0.9382482861447653 30.476642763791347 4.405504322804524 L30.476642763791347 44.82911068819619 L30.476642763791347 44.82841206719343z" stroke-width="1.0" stroke-linejoin="round" stroke="#cccccc"/><path fill="url(#id45)" d="M20.095832445549448 5.1432478222625715 Q20.095832445549448 6.0919753535865215 19.147803744814553 6.0919753535865215 L12.770792139898688 6.0919753535865215 Q11.82136668619299 6.0919753535865215 11.82136668619299 5.143248171573073 Q11.82136668619299 4.194520989559624 12.770792139898688 4.194520989559624 L19.147106521053807 4.194520989559624 Q20.095135221788702 4.194520989559624 20.095135221788702 5.143248171573073 L20.095832445549448 5.1432478222625715z" stroke-width="1.0" stroke-linejoin="round" stroke="#000000"/><path fill="url(#id46)" d="M18.844603626862053 42.7835506277246 Q18.844603626862053 46.00908407688046 15.618371556703442 46.00908407688046 Q12.392837967823384 46.00908407688046 12.392837967823384 42.7835506277246 Q12.392837967823384 39.55801703884455 15.618371556703442 39.55801703884455 Q18.844603626862053 39.55801703884455 18.844603626862053 42.7835506277246 L18.844603626862053 42.7835506277246z" stroke="none"/><path fill="none" d="M17.158831147220706 43.72878302803389 Q17.158831147220706 44.32400903058617 16.564304673878482 44.32400903058617 L14.672438879659634 44.32400903058617 Q14.077912525082981 44.32400903058617 14.077912525082981 43.72878302803389 L14.077912525082981 41.836219080888355 Q14.077912525082981 41.24239227648039 14.672438879659634 41.24239227648039 L16.564304673878482 41.24239227648039 Q17.158831147220706 41.24239227648039 17.158831147220706 41.836219080888355 L17.158831147220706 43.72878302803389 L17.158831147220706 43.72878302803389z" stroke-width="1.0" stroke-linejoin="round" stroke="#717177"/><path fill="url(#id47)" d="M28.08456431064321 38.841232588641674 L3.3128607950514954 38.841232588641674 L3.3128607950514954 8.304508558337817 L28.08456431064321 8.304508558337817 L28.08456431064321 38.841232588641674 L28.08456431064321 38.841232588641674z" stroke-width="1.0" stroke-linejoin="round" stroke="#000000"/></g><g transform="translate(598.0 195.77605427189962)"><path fill="#67676d" fill-opacity="1.0" d="M60.76826281814826 48.874411769713085 Q60.76826281814826 52.742999999999945 53.7416945865812 52.742999999999945 L7.027927335673748 52.742999999999945 Q0.0 52.742999999999945 0.0 48.874411769713085 L0.0 3.8685882302868615 Q0.0 0.0 7.027927335673748 0.0 L53.7416945865812 0.0 Q60.768260099940036 0.0 60.768260099940036 3.8685882302868615 L60.768260099940036 48.874411769713085 L60.76826281814826 48.874411769713085z" stroke-width="1.0" stroke-linejoin="round" stroke="#67676d"/><path fill="url(#id48)" d="M59.28955782189461 48.0146404089918 Q59.28955782189461 51.728333958263995 52.54568324451825 51.728333958263995 L8.429163941487925 51.728333958263995 Q1.8434777472015782 51.728333958263995 1.6852893641115676 48.0146404089918 L1.6852893641115676 4.718630353505655 Q1.6852893641115676 1.0049353076809568 8.429163941487925 1.0049353076809568 L52.54567916720594 1.0049353076809568 Q59.28955782189461 1.0049353076809568 59.28955782189461 4.718630353505655 L59.28955782189461 48.01538868524524 L59.28955782189461 48.0146404089918z" stroke-width="1.0" stroke-linejoin="round" stroke="#cccccc"/><path fill="url(#id49)" d="M39.09462826972114 5.5088097778282155 Q39.09462826972114 6.524969154483153 37.250323996948126 6.524969154483153 L24.844423477952873 6.524969154483153 Q22.99740194833936 6.524969154483153 22.99740194833936 5.508810151966342 Q22.99740194833936 4.492651149449531 24.844423477952873 4.492651149449531 L37.24896761104965 4.492651149449531 Q39.093271883822666 4.492651149449531 39.093271883822666 5.508810151966342 L39.09462826972114 5.5088097778282155z" stroke-width="1.0" stroke-linejoin="round" stroke="#000000"/><path fill="url(#id50)" d="M36.660475532854576 45.82443820965577 Q36.660475532854576 49.27922997110059 30.38413222453659 49.27922997110059 Q24.10914774850447 49.27922997110059 24.10914774850447 45.82443820965577 Q24.10914774850447 42.36964629855569 30.38413222453659 42.36964629855569 Q36.660475532854576 42.36964629855569 36.660475532854576 45.82443820965577 L36.660475532854576 45.82443820965577z" stroke="none"/><path fill="none" d="M33.38095732342105 46.83685403504237 Q33.38095732342105 47.47438637573272 32.22435972863119 47.47438637573272 L28.543905576677577 47.47438637573272 Q27.387308212935416 47.47438637573272 27.387308212935416 46.83685403504237 L27.387308212935416 44.809774038610456 Q27.387308212935416 44.1737403456005 28.543905576677577 44.1737403456005 L32.22435972863119 44.1737403456005 Q33.38095732342105 44.1737403456005 33.38095732342105 44.809774038610456 L33.38095732342105 46.83685403504237 L33.38095732342105 46.83685403504237z" stroke-width="1.0" stroke-linejoin="round" stroke="#717177"/><path fill="url(#id51)" d="M54.63598508878063 41.6019156108021 L6.444871673905417 41.6019156108021 L6.444871673905417 8.894760572922273 L54.63598508878063 8.894760572922273 L54.63598508878063 41.6019156108021 L54.63598508878063 41.6019156108021z" stroke-width="1.0" stroke-linejoin="round" stroke="#000000"/></g><g transform="translate(549.0 226.0)"><path fill="#67676d" fill-opacity="1.0" d="M31.236742275061683 45.63112941577046 Q31.236742275061683 49.24299999999995 27.624871690832194 49.24299999999995 L3.612569205232241 49.24299999999995 Q0.0 49.24299999999995 0.0 45.63112941577046 L0.0 3.6118705842294885 Q0.0 0.0 3.612569205232241 0.0 L27.624871690832194 0.0 Q31.236740877819678 0.0 31.236740877819678 3.6118705842294885 L31.236740877819678 45.63112941577046 L31.236742275061683 45.63112941577046z" stroke-width="1.0" stroke-linejoin="round" stroke="#67676d"/><path fill="url(#id52)" d="M30.476642763791347 44.82841206719343 Q30.476642763791347 48.295666706611186 27.010085348134343 48.295666706611186 L4.332847598794081 48.295666706611186 Q0.9476038413582828 48.295666706611186 0.8662901831370758 44.82841206719343 L0.8662901831370758 4.405504322804524 Q0.8662901831370758 0.9382482861447653 4.332847598794081 0.9382482861447653 L27.010083252271336 0.9382482861447653 Q30.476642763791347 0.9382482861447653 30.476642763791347 4.405504322804524 L30.476642763791347 44.82911068819619 L30.476642763791347 44.82841206719343z" stroke-width="1.0" stroke-linejoin="round" stroke="#cccccc"/><path fill="url(#id53)" d="M20.095832445549448 5.1432478222625715 Q20.095832445549448 6.0919753535865215 19.147803744814553 6.0919753535865215 L12.770792139898688 6.0919753535865215 Q11.82136668619299 6.0919753535865215 11.82136668619299 5.143248171573073 Q11.82136668619299 4.194520989559624 12.770792139898688 4.194520989559624 L19.147106521053807 4.194520989559624 Q20.095135221788702 4.194520989559624 20.095135221788702 5.143248171573073 L20.095832445549448 5.1432478222625715z" stroke-width="1.0" stroke-linejoin="round" stroke="#000000"/><path fill="url(#id54)" d="M18.844603626862053 42.7835506277246 Q18.844603626862053 46.00908407688046 15.618371556703442 46.00908407688046 Q12.392837967823384 46.00908407688046 12.392837967823384 42.7835506277246 Q12.392837967823384 39.55801703884455 15.618371556703442 39.55801703884455 Q18.844603626862053 39.55801703884455 18.844603626862053 42.7835506277246 L18.844603626862053 42.7835506277246z" stroke="none"/><path fill="none" d="M17.158831147220706 43.72878302803389 Q17.158831147220706 44.32400903058617 16.564304673878482 44.32400903058617 L14.672438879659634 44.32400903058617 Q14.077912525082981 44.32400903058617 14.077912525082981 43.72878302803389 L14.077912525082981 41.836219080888355 Q14.077912525082981 41.24239227648039 14.672438879659634 41.24239227648039 L16.564304673878482 41.24239227648039 Q17.158831147220706 41.24239227648039 17.158831147220706 41.836219080888355 L17.158831147220706 43.72878302803389 L17.158831147220706 43.72878302803389z" stroke-width="1.0" stroke-linejoin="round" stroke="#717177"/><path fill="url(#id55)" d="M28.08456431064321 38.841232588641674 L3.3128607950514954 38.841232588641674 L3.3128607950514954 8.304508558337817 L28.08456431064321 8.304508558337817 L28.08456431064321 38.841232588641674 L28.08456431064321 38.841232588641674z" stroke-width="1.0" stroke-linejoin="round" stroke="#000000"/></g><g transform="translate(548.8446232297223 324.95187677027747) rotate(90.0 45.281376770277745 18.0)"><path fill-opacity="1.0" fill="#cccccc" stroke-linejoin="round" filter="url(#id56)" d="M90.56275354055545 18.0 L68.56275354055545 36.0 L68.56275354055545 26.0 L0.0 26.0 L0.0 10.0 L68.56275354055545 10.0 L68.56275354055545 0.0 L90.56275354055545 18.0z" stroke="#666666" stroke-width="2.0"/><g transform="translate(0.0 10.0)"><clipPath id="id57"><path d="M0 0 L80.56275354055549 0 L80.56275354055549 16.0 L0 16.0z"/></clipPath><text font-size="10" clip-path="url(#id57)" text-decoration="none" fill="#000000" font-family="Arial,Arial" font-style="normal" font-weight="normal"/></g></g><g transform="translate(730.5521405800682 324.9518767702776) rotate(90.0 45.281376770277745 18.0)"><path fill-opacity="1.0" fill="#cccccc" stroke-linejoin="round" filter="url(#id58)" d="M90.56275354055556 18.0 L68.56275354055556 36.0 L68.56275354055556 26.0 L0.0 26.0 L0.0 10.0 L68.56275354055556 10.0 L68.56275354055556 0.0 L90.56275354055556 18.0z" stroke="#666666" stroke-width="2.0"/><g transform="translate(0.0 10.0)"><clipPath id="id59"><path d="M0 0 L80.56275354055549 0 L80.56275354055549 16.0 L0 16.0z"/></clipPath><text font-size="10" clip-path="url(#id59)" text-decoration="none" fill="#000000" font-family="Arial,Arial" font-style="normal" font-weight="normal"/></g></g></g></svg>